PathFileType	4	(X/Y/Z)	Walk7.trc
DataRate	CameraRate	NumFrames	NumMarkers	Units	OrigDataRate	OrigDataStartFrame	OrigNumFrames
200.000000	200.000000	4	59	mm	200.000000	547	590
Frame#	Times		LFHD		RFHD		CLAV		STRN		LASI		RASI		RACR1		RUA1		RElbow		RFA1		RWRR		RWRU		RCAR		LACR1		LUA1		LElbow		LFA1		LWRR		LCAR		RTH3		RTH2		RTB1		RTB2		RTB4		LTH1		LTH3		LTH2		LTH4		LLFC		LTB1		LTB2		LTB4		LMT1		LToe		LWRU		LMT5		LTB3		RTB3		LMFC		RMT1		RMMAL		RElbowM		RLFC		RToe		RBHD		RTH4		RTH1		RCAL		RBack		RMFC		RPSI		LLMAL		C7		LPSI		T10		LMMAL		LBHD		LCAL		LElbowM
			X1	Y1	Z1	X2	Y2	Z2	X3	Y3	Z3	X4	Y4	Z4	X5	Y5	Z5	X6	Y6	Z6	X7	Y7	Z7	X8	Y8	Z8	X9	Y9	Z9	X10	Y10	Z10	X11	Y11	Z11	X12	Y12	Z12	X13	Y13	Z13	X14	Y14	Z14	X15	Y15	Z15	X16	Y16	Z16	X17	Y17	Z17	X18	Y18	Z18	X19	Y19	Z19	X20	Y20	Z20	X21	Y21	Z21	X22	Y22	Z22	X23	Y23	Z23	X24	Y24	Z24	X25	Y25	Z25	X26	Y26	Z26	X27	Y27	Z27	X28	Y28	Z28	X29	Y29	Z29	X30	Y30	Z30	X31	Y31	Z31	X32	Y32	Z32	X33	Y33	Z33	X34	Y34	Z34	X35	Y35	Z35	X36	Y36	Z36	X37	Y37	Z37	X38	Y38	Z38	X39	Y39	Z39	X40	Y40	Z40	X41	Y41	Z41	X42	Y42	Z42	X43	Y43	Z43	X44	Y44	Z44	X45	Y45	Z45	X46	Y46	Z46	X47	Y47	Z47	X48	Y48	Z48	X49	Y49	Z49	X50	Y50	Z50	X51	Y51	Z51	X52	Y52	Z52	X53	Y53	Z53	X54	Y54	Z54	X55	Y55	Z55	X56	Y56	Z56	X57	Y57	Z57	X58	Y58	Z58	X59	Y59	Z59

547	2.735	1421.1	1671.4	1.4043	1419	1662.6	-97.165	1414.8	1410.4	-24.754	1476.6	1250.4	-21.502	1347.9	992.7	-188.7	1379.9	1004.4	178.46	1305.2	1504.4	144.85	1282	1344.9	272.58	1288	1198.8	330.19	1316.9	1049.1	353.87	1335.5	926.85	291.5	1330.3	936.34	372.92	1362.2	850.45	344.4	1292.1	1468.5	-204.76	1279.8	1291.1	-289.71	1300.2	1126.7	-338.05	1353.2	996.79	-346.16	1429.3	889.89	-284.23	1463.8	811.43	-318.69	1421.3	645.12	216.81	1434.8	749.23	208.53	1457.1	407.8	141.86	1400.2	337.94	196.42	1416.9	331.61	137.65	1280.3	757.29	-191.27	1292	590.47	-156.34	1343.7	681.07	-164.01	1284.8	674.84	-173.29	1275.3	506.4	-146.74	1335.9	380.81	-79.762	1286.4	293.04	-107.76	1319.8	301.48	-55.592	1339.8	36.968	-16.855	1392.1	23.585	-60.579	1393.1	863.67	-343.58	1267	25.642	-88.947	1296.1	220.22	-33.7	1376.4	255.98	132.45	1304.9	506.12	7.9907	1392.6	56.387	112.59	1287.9	144.72	81.01	1228.4	1123.8	243.23	1432.5	539.2	213.6	1432.8	55.71	148.97	1266.2	1589.9	-101.87	1384	722.39	223.45	1344.4	799.86	227.4	1187.7	135.33	119.26	1158.9	1384.3	98.013	1437.7	534.58	57.408	1111.7	1039.5	44.122	1181.9	78.365	-18.525	1223.2	1494.8	-23.402	1114.1	1050.2	-42.059	1155.3	1180.3	-3.5032	1216.7	88.736	64.58	1286	1607.1	47.136	1134.4	55.503	44.24	1243.8	1062.4	-245.73
548	2.74	1427.2	1671.1	1.4294	1425	1662.5	-97.155	1420.7	1410.1	-25.129	1482.4	1250	-22.147	1353.1	992.67	-189.14	1386.6	1004	177.33	1311.4	1504.2	144.61	1287.4	1344.8	272.35	1292.6	1198.5	329.98	1320.4	1048.6	353.8	1338.1	926.13	291.65	1332.9	935.74	373.03	1364	849.51	344.63	1297.9	1468.3	-204.97	1287	1291.1	-290.05	1309.4	1127	-338.65	1363.9	997.72	-346.71	1440.9	891.62	-284.59	1476.6	813.71	-319.03	1429.7	646.09	215.72	1442.4	750.29	207.64	1469.4	408.98	140.73	1414.4	337.59	195.37	1431.4	331.6	136.66	1284.3	757.1	-191.63	1295.3	590.19	-156.55	1347.4	680.49	-164.29	1288.5	674.62	-173.63	1278.2	506.14	-146.86	1338.1	380.19	-79.853	1288	292.72	-107.78	1321.5	300.99	-55.634	1339.9	36.93	-16.889	1392.3	23.516	-60.688	1405.4	865.1	-344.19	1267	25.673	-88.847	1297.3	219.86	-33.679	1393.2	254.79	131.63	1308	505.79	7.7965	1415.3	55.788	112.2	1308.2	140.87	80.31	1232.6	1123.8	242.98	1441.7	540.01	212.24	1455.4	56.434	148.62	1272.3	1589.8	-101.98	1391.8	723.04	222.7	1351.7	800.25	226.96	1208.1	128.57	118.33	1164.9	1384.1	97.824	1446.5	535.57	56.121	1117.7	1039.4	44.418	1182.2	78.676	-18.358	1229.2	1494.7	-23.577	1119.7	1050.2	-41.7	1161.3	1180.2	-3.3909	1217.1	88.917	64.737	1292	1606.8	47.049	1134.7	56.018	44.448	1253.5	1061.8	-246.58
549	2.745	1433.2	1670.8	1.4573	1431.1	1662.3	-97.141	1426.6	1409.8	-25.498	1488.2	1249.6	-22.787	1358.3	992.62	-189.55	1393.4	1003.6	176.19	1317.6	1503.8	144.38	1292.9	1344.6	272.12	1297.3	1198.3	329.77	1323.9	1048.1	353.73	1340.8	925.42	291.77	1335.5	935.13	373.12	1365.9	848.57	344.83	1303.6	1468.1	-205.16	1294.1	1291	-290.37	1318.5	1127.3	-339.22	1374.5	998.64	-347.24	1452.5	893.35	-284.92	1489.3	816.02	-319.37	1438	646.95	214.63	1449.8	751.22	206.73	1481.5	410.12	139.63	1428.4	337.25	194.33	1445.9	331.61	135.7	1288.2	756.89	-191.99	1298.6	589.88	-156.77	1351.2	679.9	-164.57	1292.3	674.4	-173.99	1281.1	505.86	-146.99	1340.3	379.55	-79.956	1289.7	292.38	-107.8	1323.2	300.48	-55.685	1340	36.888	-16.919	1392.4	23.45	-60.79	1417.6	866.53	-344.76	1267.1	25.704	-88.745	1298.5	219.5	-33.664	1410	253.68	130.81	1311.2	505.43	7.5878	1438	55.431	111.81	1328.6	137.17	79.553	1236.8	1123.9	242.73	1450.7	540.69	210.87	1478.1	57.391	148.29	1278.3	1589.6	-102.09	1399.6	723.6	221.96	1358.9	800.54	226.55	1228.8	121.94	117.31	1170.9	1384	97.662	1455.1	536.4	54.829	1123.7	1039.3	44.73	1182.6	79.003	-18.204	1235.2	1494.4	-23.75	1125.3	1050.1	-41.312	1167.2	1180	-3.2413	1217.6	89.108	64.882	1298.1	1606.4	46.961	1135.1	56.552	44.647	1263.2	1061.2	-247.41
550	2.75	1439.3	1670.4	1.4886	1437.2	1662.1	-97.124	1432.5	1409.4	-25.86	1494.1	1249.2	-23.42	1363.6	992.53	-189.94	1400.2	1003.2	175.05	1323.8	1503.5	144.16	1298.3	1344.3	271.9	1301.9	1198	329.55	1327.4	1047.5	353.64	1343.6	924.71	291.88	1338.1	934.51	373.18	1367.7	847.63	345.01	1309.3	1467.9	-205.35	1301.3	1290.8	-290.67	1327.7	1127.5	-339.76	1385.1	999.56	-347.74	1464	895.1	-285.25	1501.9	818.37	-319.68	1446.2	647.7	213.56	1457.2	752.03	205.82	1493.4	411.23	138.55	1442.4	336.93	193.28	1460.2	331.65	134.74	1292.3	756.66	-192.33	1301.9	589.56	-157	1355	679.28	-164.85	1296.1	674.17	-174.37	1284	505.57	-147.14	1342.6	378.89	-80.07	1291.3	292.04	-107.84	1325	299.95	-55.745	1340.2	36.841	-16.945	1392.5	23.387	-60.887	1429.7	867.97	-345.3	1267.1	25.733	-88.643	1299.7	219.13	-33.655	1426.8	252.65	130	1314.4	505.06	7.3657	1460.8	55.332	111.41	1349.1	133.65	78.737	1241.1	1123.9	242.46	1459.4	541.24	209.48	1500.6	58.598	147.97	1284.4	1589.4	-102.21	1407.2	724.06	221.21	1366	800.75	226.14	1249.7	115.46	116.2	1177	1383.7	97.528	1463.5	537.07	53.533	1129.8	1039.1	45.06	1183	79.347	-18.065	1241.2	1494.1	-23.921	1131	1050.1	-40.892	1173.1	1179.8	-3.054	1218	89.311	65.014	1304.1	1606	46.874	1135.4	57.106	44.836	1272.9	1060.5	-248.2
